<svg width="50" height="51" viewBox="0 0 50 51" fill="none" xmlns="http://www.w3.org/2000/svg">
<circle cx="25" cy="25.8477" r="25" fill="url(#paint0_linear)"/>
<mask id="mask0" mask-type="alpha" maskUnits="userSpaceOnUse" x="0" y="0" width="50" height="51">
<circle cx="25" cy="25.8477" r="25" fill="url(#paint1_linear)"/>
</mask>
<g mask="url(#mask0)">
<path d="M-8.1071 14.0898H17.4471C17.4471 14.0898 24.6202 14.0811 35.3798 14.0898C35.3798 18.5656 26.4134 25.9703 26.4134 25.9703M-8.1071 37.8507C-8.1071 37.8507 2.04008 37.8507 17.4471 37.8507M17.4471 37.8507C24.4502 37.8507 35.3798 37.8507 35.3798 37.8507C35.3798 32.0152 26.4134 25.9703 26.4134 25.9703M17.4471 37.8507C17.4471 32.9118 26.4134 25.9703 26.4134 25.9703M26.4134 25.9703H-8.1071" stroke="url(#paint2_linear)" stroke-width="2"/>
</g>
<defs>
<linearGradient id="paint0_linear" x1="25" y1="0.847656" x2="25" y2="50.8477" gradientUnits="userSpaceOnUse">
<stop stop-color="#E3258E"/>
<stop offset="1" stop-color="#DDA33A"/>
</linearGradient>
<linearGradient id="paint1_linear" x1="25" y1="0.847656" x2="25" y2="50.8477" gradientUnits="userSpaceOnUse">
<stop stop-color="#E3258E"/>
<stop offset="1" stop-color="#DDA33A"/>
</linearGradient>
<linearGradient id="paint2_linear" x1="35.8281" y1="28.8805" x2="-21.1083" y2="28.8805" gradientUnits="userSpaceOnUse">
<stop offset="0.1125" stop-color="white"/>
<stop offset="0.65909" stop-color="white" stop-opacity="0"/>
</linearGradient>
</defs>
</svg>
