<svg width="51" height="51" viewBox="0 0 51 51" fill="none" xmlns="http://www.w3.org/2000/svg">
<circle cx="25.875" cy="25.5" r="25" fill="url(#paint0_linear)"/>
<mask id="mask0" mask-type="alpha" maskUnits="userSpaceOnUse" x="0" y="0" width="51" height="51">
<circle cx="25.875" cy="25.5" r="25" fill="url(#paint1_linear)"/>
</mask>
<g mask="url(#mask0)">
<path d="M-7.23218 13.7422H18.322C18.322 13.7422 25.4951 13.7334 36.2547 13.7422C36.2547 18.218 27.2884 25.6226 27.2884 25.6226M-7.23218 37.5031C-7.23218 37.5031 2.91501 37.5031 18.322 37.5031M18.322 37.5031C25.3252 37.5031 36.2547 37.5031 36.2547 37.5031C36.2547 31.6675 27.2884 25.6226 27.2884 25.6226M18.322 37.5031C18.322 32.5642 27.2884 25.6226 27.2884 25.6226M27.2884 25.6226H-7.23218" stroke="url(#paint2_linear)" stroke-width="2"/>
</g>
<defs>
<linearGradient id="paint0_linear" x1="25.875" y1="0.5" x2="25.875" y2="50.5" gradientUnits="userSpaceOnUse">
<stop stop-color="#E3258E"/>
<stop offset="1" stop-color="#DDA33A"/>
</linearGradient>
<linearGradient id="paint1_linear" x1="25.875" y1="0.5" x2="25.875" y2="50.5" gradientUnits="userSpaceOnUse">
<stop stop-color="#E3258E"/>
<stop offset="1" stop-color="#DDA33A"/>
</linearGradient>
<linearGradient id="paint2_linear" x1="36.7031" y1="28.5328" x2="-20.2334" y2="28.5328" gradientUnits="userSpaceOnUse">
<stop offset="0.1125" stop-color="white"/>
<stop offset="0.65909" stop-color="white" stop-opacity="0"/>
</linearGradient>
</defs>
</svg>
