<svg width="57" height="56" viewBox="0 0 57 56" fill="none" xmlns="http://www.w3.org/2000/svg">
<circle cx="28.395" cy="28" r="27.5" fill="#FF0083" stroke="#FF0083"/>
<path d="M29.9624 30.7158H26.9009L26.564 15.6719H30.314L29.9624 30.7158ZM26.4614 35.3154C26.4614 34.7588 26.6421 34.2998 27.0034 33.9385C27.3647 33.5674 27.8579 33.3818 28.4829 33.3818C29.1079 33.3818 29.6011 33.5674 29.9624 33.9385C30.3237 34.2998 30.5044 34.7588 30.5044 35.3154C30.5044 35.8525 30.3286 36.3018 29.9771 36.6631C29.6255 37.0244 29.1274 37.2051 28.4829 37.2051C27.8384 37.2051 27.3403 37.0244 26.9888 36.6631C26.6372 36.3018 26.4614 35.8525 26.4614 35.3154Z" fill="white"/>
</svg>
