<svg width="19" height="19" viewBox="0 0 19 19" fill="none" xmlns="http://www.w3.org/2000/svg">
 
<path  fill-rule="evenodd" clip-rule="evenodd" d="M2.88262 1.54907C2.96709 1.65985 3.09409 1.81301 3.16486 1.88948C3.23562 1.96594 3.58594 2.39611 3.94327 2.84545C4.3006 3.29478 4.78449 3.89526 5.01855 4.17984C6.3674 5.81968 7.06496 6.70435 7.06496 6.77538C7.06496 6.96677 6.95336 7.06649 6.7392 7.06649C6.52779 7.06649 6.52225 7.06077 5.38393 5.66402C4.75528 4.89263 4.13128 4.12156 3.99726 3.95049C3.86318 3.77947 3.74314 3.64984 3.73037 3.66248C3.71765 3.67517 3.7808 3.80289 3.87069 3.9463C4.35399 4.71736 5.6398 7.05848 5.6398 7.16742C5.6398 7.22286 5.56888 7.34198 5.48216 7.43212C5.27425 7.64829 5.11913 8.07676 5.04288 8.64522C4.96094 9.25653 4.68512 9.81306 4.11133 10.525C3.47028 11.3205 3.41985 11.4377 3.41985 12.1317C3.41985 12.6442 3.4358 12.7376 3.57349 13.0304C3.65796 13.2102 3.82197 13.5043 3.93784 13.684C4.05377 13.8637 4.16587 14.0684 4.18702 14.1387C4.22254 14.2569 4.24502 14.2638 4.48044 14.2292C5.10893 14.1369 5.97603 13.6872 6.24983 13.3116C6.38143 13.1311 6.4072 13.0423 6.4072 12.7694C6.4072 12.4515 6.4004 12.4364 6.14683 12.192C6.00366 12.054 5.77059 11.8629 5.62895 11.7672C5.48731 11.6716 5.30232 11.4895 5.21785 11.3627C5.08849 11.1685 5.06437 11.0756 5.06481 10.7741C5.06525 10.4708 5.09649 10.3537 5.26965 10.0076C5.53116 9.48474 5.62248 9.17179 5.69089 8.56428C5.73995 8.12845 5.76352 8.05846 5.90335 7.93292C6.01243 7.83505 6.14859 7.78145 6.34778 7.75798C6.99907 7.68135 7.49026 7.30167 7.54332 6.83387C7.56892 6.60806 7.55768 6.58845 7.11248 6.08536C5.97143 4.79573 2.7981 1.34766 2.75239 1.34766C2.73956 1.34766 2.79821 1.43829 2.88262 1.54907ZM7.07614 3.60943C7.09735 3.63083 7.22946 3.66961 7.36972 3.69565C8.08833 3.82903 8.76462 4.36219 9.62569 5.47399C10.7541 6.93098 11.1865 7.17036 12.9026 7.28822C14.0603 7.36768 14.4106 7.4777 14.7294 7.86206L14.7441 7.87978C14.7821 7.9256 14.856 7.88924 14.8429 7.83118V7.83118C14.7143 7.26251 14.3127 6.6439 13.7006 6.0718C13.2101 5.61331 12.6346 5.28679 11.9967 5.10509C11.4945 4.96207 10.5171 4.90472 10.0535 4.9911V4.9911C9.85003 5.02901 9.6415 4.95809 9.50334 4.80397L9.43477 4.72749C9.05409 4.30288 8.41765 3.88263 7.95157 3.74815C7.55116 3.63258 7.01481 3.54761 7.07614 3.60943ZM6.96739 4.49302C7.01333 5.35253 7.45841 6.17435 8.0652 6.52015C8.33992 6.67674 8.61832 6.73306 8.67407 6.64341C8.68838 6.62042 8.63904 6.50398 8.56444 6.3847C8.37725 6.08547 8.33609 5.97463 8.18047 5.35084C7.99361 4.60156 7.86151 4.39345 7.44016 4.18425C6.93681 3.93431 6.93752 3.93382 6.96739 4.49302ZM10.7375 7.45864C10.7375 8.04251 11.0248 8.54979 11.5748 8.93731C12.004 9.23959 12.2773 9.37565 13.2921 9.79214C14.5891 10.3244 15.1483 10.7114 15.3349 11.2058C15.4914 11.6204 15.4988 11.624 15.5016 11.2875C15.5031 11.1078 15.4701 10.8014 15.4282 10.6067C15.2981 10.0022 14.7402 8.50922 14.6114 8.42077C14.5837 8.40176 14.4099 8.36984 14.2252 8.3498C13.7526 8.29855 12.3783 7.97491 11.8886 7.79954C11.4433 7.64012 11.0561 7.43903 10.8608 7.26583V7.26583C10.813 7.2234 10.7375 7.25735 10.7375 7.32129V7.45864ZM7.70935 7.97905C7.52424 8.09305 7.39384 8.35399 7.39384 8.61025C7.39384 8.94336 7.69334 9.05027 8.24197 8.91297C8.55649 8.83432 8.70937 8.68792 8.70937 8.46537C8.70937 8.01266 8.11996 7.72606 7.70935 7.97905ZM8.53917 8.17611C8.66568 8.32763 8.47076 8.53705 8.20322 8.53705C8.0481 8.53705 7.94198 8.44342 7.94198 8.30655C7.94198 8.12992 8.41442 8.02677 8.53917 8.17611ZM11.8142 9.87144C11.9537 10.7283 11.6125 11.3625 10.862 11.6416C10.6995 11.7019 10.3152 11.7883 10.008 11.8335C9.44842 11.9159 8.87644 12.0713 8.58878 12.2191C8.50437 12.2625 8.4353 12.3058 8.4353 12.3153C8.4353 12.3249 8.60177 12.3019 8.80529 12.2643C9.00882 12.2266 9.50828 12.1699 9.91527 12.1382C10.3223 12.1066 10.7807 12.0434 10.934 11.9978C11.6066 11.7979 12.1078 11.1771 12.1078 10.544C12.1078 10.3195 11.9306 9.75402 11.8297 9.65674C11.7866 9.61519 11.7823 9.67515 11.8142 9.87144ZM12.4324 10.0425C12.3985 10.129 12.3827 10.3603 12.3966 10.5628C12.4286 11.0285 12.6367 11.467 13.3035 12.4741C13.5769 12.887 13.8554 13.3649 13.9224 13.5361C14.0721 13.9187 14.0865 14.5477 13.9536 14.8985V14.8985C13.9233 14.9782 14.009 15.0522 14.0835 15.0108L14.0894 15.0074C14.3871 14.8415 14.8066 14.3791 14.9812 14.0244C15.2094 13.5608 15.3197 12.9529 15.2485 12.55C15.069 11.5328 14.6861 11.113 13.2041 10.308C12.8875 10.1361 12.5981 9.97101 12.561 9.94116C12.5117 9.90162 12.4768 9.92918 12.4324 10.0425ZM4.48855 11.8385C4.75281 12.0757 4.78997 12.3148 4.57763 12.4109C4.33568 12.5205 3.94058 12.235 3.94058 11.9506C3.94058 11.8437 4.10382 11.6416 4.1902 11.6416C4.23362 11.6416 4.36791 11.7302 4.48855 11.8385ZM8.18864 12.9791C7.76953 13.0699 7.01744 13.4021 6.69404 13.6393C6.43636 13.8284 6.12151 14.0925 6.15379 14.0925C6.16728 14.0925 6.3674 14.1284 6.5985 14.1724C7.1195 14.2714 7.30488 14.3804 7.86475 14.9165C8.10872 15.1502 8.37544 15.3667 8.45755 15.3977C8.68542 15.4838 9.08484 15.4651 9.26392 15.36C9.48471 15.2304 9.74463 14.6916 9.58639 14.6916C9.55624 14.6916 9.53157 14.7393 9.53157 14.7975C9.53157 14.9479 9.31402 15.1758 9.12047 15.2282C8.87924 15.2937 8.63356 15.2072 8.44089 14.9891C8.29969 14.8294 8.27086 14.751 8.27086 14.5272C8.27086 14.1412 8.46983 13.9255 8.86027 13.8882C9.01506 13.8734 9.22374 13.8766 9.32399 13.8953C9.60667 13.948 10.0377 14.3585 10.2292 14.7573C10.3198 14.9458 10.4721 15.2643 10.5677 15.4648C10.9471 16.2611 11.6057 16.5458 12.286 16.2076C12.5468 16.078 12.5475 16.0466 12.2878 16.1179C12.1758 16.1486 11.9643 16.1623 11.8179 16.1483C11.2954 16.0984 11.0556 15.7661 10.9274 14.9142C10.8104 14.1367 10.6714 13.7971 10.3323 13.4602C9.84785 12.9788 9.03381 12.7961 8.18864 12.9791Z" fill="url(#paint0_radial)"/>
<defs>
<radialGradient id="paint0_radial" cx="0" cy="0" r="1" gradientUnits="userSpaceOnUse" gradientTransform="translate(3.80335 -32.0763) rotate(86.372) scale(84.4627 76.1733)">
<stop offset="0.4875" stop-color="#DF1E82"/>
<stop offset="1" stop-color="#FCE153"/>
</radialGradient>
 <filter id="shadow">
    <feDropShadow dx="0.2" dy="0.4" stdDeviation="0.2"/>
  </filter>
</defs>
</svg>
