<svg width="18" height="19" viewBox="0 0 18 19" fill="none" xmlns="http://www.w3.org/2000/svg">
<path filter="url(#shadow)" fill-rule="evenodd" clip-rule="evenodd" d="M2.38263 1.54907C2.4671 1.65985 2.5941 1.81301 2.66487 1.88948C2.73563 1.96594 3.08595 2.39611 3.44328 2.84545C3.80061 3.29478 4.2845 3.89526 4.51855 4.17984C5.86741 5.81968 6.56497 6.70435 6.56497 6.77538C6.56497 6.96677 6.45337 7.06649 6.23921 7.06649C6.02779 7.06649 6.02226 7.06077 4.88394 5.66402C4.25528 4.89263 3.63129 4.12156 3.49727 3.95049C3.36319 3.77947 3.24315 3.64984 3.23038 3.66248C3.21766 3.67517 3.28081 3.80289 3.3707 3.9463C3.85399 4.71736 5.13981 7.05849 5.13981 7.16742C5.13981 7.22286 5.06888 7.34198 4.98217 7.43212C4.77426 7.64829 4.61914 8.07676 4.54289 8.64522C4.46095 9.25653 4.18512 9.81306 3.61133 10.525C2.97029 11.3205 2.91986 11.4377 2.91986 12.1317C2.91986 12.6442 2.93581 12.7376 3.0735 13.0304C3.15797 13.2102 3.32197 13.5043 3.43785 13.684C3.55378 13.8637 3.66587 14.0684 3.68703 14.1387C3.72255 14.2569 3.74502 14.2638 3.98045 14.2292C4.60894 14.1369 5.47604 13.6872 5.74983 13.3116C5.88144 13.1311 5.9072 13.0423 5.9072 12.7694C5.9072 12.4515 5.90041 12.4364 5.64684 12.192C5.50367 12.054 5.2706 11.8629 5.12896 11.7672C4.98732 11.6716 4.80232 11.4895 4.71786 11.3627C4.5885 11.1685 4.56438 11.0756 4.56482 10.7741C4.56526 10.4708 4.5965 10.3537 4.76966 10.0076C5.03117 9.48474 5.12249 9.17179 5.1909 8.56428C5.23996 8.12845 5.26353 8.05846 5.40336 7.93292C5.51244 7.83505 5.64859 7.78145 5.84779 7.75798C6.49908 7.68135 6.99027 7.30167 7.04333 6.83387C7.06892 6.60806 7.05769 6.58845 6.61249 6.08536C5.47143 4.79573 2.29811 1.34766 2.25239 1.34766C2.23957 1.34766 2.29822 1.43829 2.38263 1.54907ZM6.57615 3.60943C6.59736 3.63083 6.72946 3.66961 6.86973 3.69565C7.58834 3.82903 8.26463 4.36219 9.1257 5.47399C10.2541 6.93098 10.6865 7.17036 12.4026 7.28822C13.5603 7.36768 13.9106 7.4777 14.2295 7.86206L14.2441 7.87978C14.2821 7.9256 14.356 7.88924 14.3429 7.83118C14.2143 7.26251 13.8127 6.6439 13.2007 6.0718C12.7101 5.61331 12.1346 5.28679 11.4967 5.10509C10.9945 4.96207 10.0171 4.90472 9.55352 4.9911C9.35004 5.02901 9.14151 4.95809 9.00335 4.80397L8.93478 4.72749C8.5541 4.30288 7.91766 3.88263 7.45158 3.74815C7.05116 3.63258 6.51481 3.54761 6.57615 3.60943ZM6.4674 4.49302C6.51333 5.35253 6.95842 6.17435 7.56521 6.52015C7.83993 6.67674 8.11833 6.73306 8.17408 6.64341C8.18838 6.62042 8.13905 6.50398 8.06445 6.3847C7.87726 6.08547 7.8361 5.97463 7.68048 5.35084C7.49362 4.60156 7.36152 4.39345 6.94017 4.18425C6.43681 3.93431 6.43753 3.93382 6.4674 4.49302ZM10.2375 7.45864C10.2375 8.04251 10.5248 8.54979 11.0748 8.93731C11.504 9.23959 11.7773 9.37565 12.7921 9.79214C14.0891 10.3244 14.6483 10.7114 14.8349 11.2058C14.9914 11.6204 14.9988 11.624 15.0016 11.2875C15.0031 11.1078 14.9701 10.8014 14.9282 10.6067C14.7981 10.0022 14.2402 8.50922 14.1114 8.42077C14.0837 8.40176 13.9099 8.36984 13.7252 8.3498C13.2526 8.29855 11.8783 7.97491 11.3886 7.79954C10.9433 7.64012 10.5561 7.43903 10.3608 7.26583C10.313 7.2234 10.2375 7.25736 10.2375 7.32129V7.45864ZM7.20936 7.97905C7.02425 8.09305 6.89385 8.35399 6.89385 8.61025C6.89385 8.94336 7.19335 9.05027 7.74198 8.91297C8.0565 8.83432 8.20938 8.68792 8.20938 8.46537C8.20938 8.01266 7.61997 7.72606 7.20936 7.97905ZM8.03918 8.17611C8.16569 8.32763 7.97077 8.53705 7.70323 8.53705C7.5481 8.53705 7.44199 8.44342 7.44199 8.30655C7.44199 8.12992 7.91442 8.02677 8.03918 8.17611ZM11.3142 9.87144C11.4537 10.7283 11.1125 11.3625 10.362 11.6416C10.1996 11.7019 9.81525 11.7883 9.50802 11.8335C8.94843 11.9159 8.37645 12.0713 8.08879 12.2191C8.00437 12.2625 7.93531 12.3058 7.93531 12.3153C7.93531 12.3249 8.10178 12.3019 8.3053 12.2643C8.50882 12.2266 9.00829 12.1699 9.41528 12.1382C9.82227 12.1066 10.2807 12.0434 10.434 11.9978C11.1066 11.7979 11.6078 11.1771 11.6078 10.544C11.6078 10.3195 11.4306 9.75402 11.3297 9.65674C11.2866 9.61519 11.2823 9.67515 11.3142 9.87144ZM11.9324 10.0425C11.8986 10.129 11.8827 10.3603 11.8966 10.5628C11.9286 11.0285 12.1367 11.467 12.8035 12.4741C13.0769 12.887 13.3554 13.3649 13.4224 13.5361C13.5721 13.9187 13.5865 14.5477 13.4536 14.8985C13.4233 14.9782 13.509 15.0522 13.5835 15.0108L13.5894 15.0074C13.8871 14.8415 14.3066 14.3791 14.4812 14.0244C14.7095 13.5608 14.8197 12.9529 14.7485 12.55C14.569 11.5328 14.1861 11.113 12.7041 10.308C12.3875 10.1361 12.0981 9.97101 12.061 9.94116C12.0117 9.90162 11.9768 9.92918 11.9324 10.0425ZM3.98856 11.8385C4.25282 12.0757 4.28998 12.3148 4.07763 12.4109C3.83569 12.5205 3.44059 12.235 3.44059 11.9506C3.44059 11.8437 3.60382 11.6416 3.69021 11.6416C3.73362 11.6416 3.86792 11.7302 3.98856 11.8385ZM7.68865 12.9791C7.26954 13.0699 6.51744 13.4021 6.19404 13.6393C5.93636 13.8284 5.62151 14.0925 5.6538 14.0925C5.66728 14.0925 5.86741 14.1284 6.0985 14.1724C6.61951 14.2714 6.80489 14.3804 7.36475 14.9165C7.60873 15.1502 7.87545 15.3667 7.95756 15.3977C8.18542 15.4838 8.58485 15.4651 8.76393 15.36C8.98472 15.2304 9.24464 14.6916 9.08639 14.6916C9.05625 14.6916 9.03158 14.7393 9.03158 14.7975C9.03158 14.9479 8.81403 15.1758 8.62048 15.2282C8.37924 15.2937 8.13357 15.2072 7.9409 14.9891C7.7997 14.8294 7.77087 14.751 7.77087 14.5272C7.77087 14.1412 7.96984 13.9255 8.36028 13.8882C8.51507 13.8734 8.72375 13.8766 8.824 13.8953C9.10668 13.948 9.53768 14.3585 9.72925 14.7573C9.8198 14.9458 9.97207 15.2643 10.0677 15.4648C10.4471 16.2611 11.1057 16.5458 11.786 16.2076C12.0468 16.078 12.0475 16.0466 11.7878 16.1179C11.6758 16.1486 11.4643 16.1623 11.3179 16.1483C10.7954 16.0984 10.5556 15.7661 10.4274 14.9142C10.3104 14.1367 10.1714 13.7971 9.83235 13.4602C9.34786 12.9788 8.53382 12.7961 7.68865 12.9791Z" fill="url(#paint0_radial)"/>
<defs>
<radialGradient id="paint0_radial" cx="0" cy="0" r="1" gradientUnits="userSpaceOnUse" gradientTransform="translate(3.30336 -32.0763) rotate(86.372) scale(84.4627 76.1733)">
<stop offset="0.4875" stop-color="#DF1E82"/>
<stop offset="1" stop-color="#FCE153"/>
</radialGradient>
<filter id="shadow">
  <feDropShadow dx="0" dy="0" stdDeviation="0.5"
          flood-color="cyan"/>
</filter>
</defs>
</svg>
