<svg width="106" height="30" viewBox="0 0 106 30" fill="none" xmlns="http://www.w3.org/2000/svg">
<g filter="url(#filter0_d)">
<path d="M52.9854 3C55.1212 3 57.2844 3.02266 59.4202 3.06799C61.5559 3.13598 63.6917 3.1813 65.8549 3.31728L69.0586 3.49858C70.1265 3.56657 71.1944 3.63456 72.2623 3.72521C74.3981 3.90652 76.5339 4.11048 78.6697 4.38244C82.9139 4.90368 87.1855 5.56091 91.3475 6.67139C93.4285 7.23796 95.5096 7.87252 97.4811 8.84702C98.4668 9.34561 99.4526 9.91218 100.301 10.6827C100.74 11.068 101.123 11.5212 101.451 12.0652C101.753 12.5864 101.972 13.221 101.999 13.8555C102.026 14.4901 101.862 15.1246 101.588 15.6912C101.315 16.2578 100.931 16.7337 100.548 17.1643C99.7264 18.0255 98.768 18.6827 97.8097 19.2493C96.8513 19.8159 95.8382 20.3144 94.825 20.745C93.8119 21.1756 92.7714 21.5609 91.7309 21.9235C89.6498 22.6261 87.5414 23.1926 85.433 23.6912C83.2972 24.1898 81.1614 24.6204 79.0256 24.983C76.8625 25.3456 74.7267 25.6402 72.5635 25.8895C70.4003 26.1388 68.2371 26.3881 66.074 26.5241C61.7202 26.864 57.3665 27 53.0128 27C50.8496 27 48.659 26.9547 46.4959 26.8867C44.3327 26.8187 42.1421 26.6827 39.979 26.5241C37.8158 26.3654 35.6526 26.1388 33.4895 25.8895C31.3263 25.6402 29.1631 25.3229 27.0273 24.983L25.357 24.6657C24.8094 24.5751 24.2891 24.4618 23.7415 24.3484C22.6736 24.1218 21.6057 23.8952 20.5378 23.6459C18.4294 23.1473 16.321 22.5807 14.2399 21.8782C13.1994 21.5382 12.1863 21.1303 11.1458 20.6997C10.1327 20.2691 9.11952 19.7705 8.16115 19.204C7.20278 18.6374 6.24442 17.9802 5.42296 17.119C5.01223 16.6884 4.65626 16.1898 4.38244 15.6459C4.10862 15.0793 3.94433 14.4448 3.97171 13.8102C4.02648 13.1983 4.21815 12.5864 4.54674 12.0652C4.84794 11.5439 5.25867 11.0907 5.69678 10.6827C6.573 9.91218 7.53137 9.32295 8.51712 8.84702C10.4886 7.87252 12.5696 7.23796 14.6507 6.67139C16.7317 6.10482 18.8401 5.67422 20.9485 5.31161C23.0569 4.94901 25.1927 4.65439 27.3285 4.38244C29.4643 4.11048 31.6001 3.90652 33.7359 3.72521C35.8717 3.54391 38.0075 3.43059 40.1433 3.31728C42.2791 3.20397 44.4149 3.13598 46.578 3.06799C48.7138 3.02266 50.8496 3 52.9854 3ZM52.9854 3.27195C44.4422 3.29462 35.8717 3.77054 27.438 4.99433C23.2486 5.60623 19.0592 6.39943 15.0614 7.62323C13.0625 8.23513 11.091 8.93768 9.33858 9.88952C8.46235 10.3654 7.61351 10.9093 6.95635 11.5666C6.29918 12.2238 5.8063 13.017 5.8063 13.8329C5.8063 14.6714 6.29918 15.4646 6.95635 16.0991C7.6409 16.7564 8.46235 17.3003 9.33858 17.7762C11.1184 18.728 13.0899 19.4306 15.0614 20.0425C19.0592 21.2436 23.2486 22.0142 27.4654 22.6261C35.8991 23.8272 44.4422 24.2805 52.9854 24.2805C61.5286 24.2805 70.0991 23.8272 78.5054 22.6261C82.6948 22.0142 86.8843 21.2436 90.9094 20.0425C92.9083 19.4306 94.8798 18.728 96.6322 17.7762C97.5084 17.3003 98.3573 16.7564 99.0145 16.0991C99.6716 15.4419 100.165 14.6487 100.165 13.8329C100.165 12.9943 99.699 12.2011 99.0145 11.5666C98.3573 10.9093 97.5084 10.3654 96.6322 9.88952C94.8524 8.93768 92.9083 8.23513 90.9094 7.62323C86.9116 6.4221 82.7222 5.6289 78.5054 4.99433C70.1265 3.77054 61.5559 3.29462 52.9854 3.27195Z" fill="white"/>
</g>
<defs>
<filter id="filter0_d" x="-1" y="-2" width="108" height="34" filterUnits="userSpaceOnUse" color-interpolation-filters="sRGB">
<feFlood flood-opacity="0" result="BackgroundImageFix"/>
<feColorMatrix in="SourceAlpha" type="matrix" values="0 0 0 0 0 0 0 0 0 0 0 0 0 0 0 0 0 0 127 0"/>
<feMorphology radius="1" operator="dilate" in="SourceAlpha" result="effect1_dropShadow"/>
<feOffset/>
<feGaussianBlur stdDeviation="1"/>
<feColorMatrix type="matrix" values="0 0 0 0 1 0 0 0 0 1 0 0 0 0 1 0 0 0 0.48 0"/>
<feBlend mode="normal" in2="BackgroundImageFix" result="effect1_dropShadow"/>
<feBlend mode="normal" in="SourceGraphic" in2="effect1_dropShadow" result="shape"/>
</filter>
</defs>
</svg>
