<svg width="18" height="18" viewBox="0 0 18 18" fill="none" xmlns="http://www.w3.org/2000/svg">
<path d="M16.1027 16.1068L16.1062 16.1062V10.8945C16.1062 8.34487 15.5573 6.38086 12.5767 6.38086C11.1438 6.38086 10.1822 7.16718 9.78965 7.91264H9.74821V6.61889H6.92209V16.1062H9.86485V11.4084C9.86485 10.1715 10.0993 8.97546 11.6311 8.97546C13.1404 8.97546 13.1629 10.387 13.1629 11.4878V16.1068H16.1027Z" fill="#D9D6DC"/>
<path d="M2.13019 6.61957H5.0765V16.1069H2.13019V6.61957Z" fill="#D9D6DC"/>
<path d="M3.60211 1.89569C2.66007 1.89569 1.89566 2.6601 1.89566 3.60214C1.89566 4.54418 2.66007 5.32457 3.60211 5.32457C4.54415 5.32457 5.30855 4.54418 5.30855 3.60214C5.30796 2.6601 4.54355 1.89569 3.60211 1.89569V1.89569Z" fill="#D9D6DC"/>
</svg>
