<svg width="24" height="24" viewBox="0 0 24 24" fill="none" xmlns="http://www.w3.org/2000/svg">
<path d="M14.6162 15.0397C15.0315 15.401 15.4019 16.1149 15.4019 17.2062C15.4019 18.2523 15.3954 19.1633 15.3911 19.7666L15.3911 19.7673L15.3874 20.4158C15.3874 20.5598 15.4314 20.7145 15.536 20.8286C15.5984 20.8966 15.6825 20.9502 15.7916 20.9783L9.23015 20.9796C9.34376 20.9522 9.43122 20.898 9.49604 20.8286C9.60247 20.7146 9.64789 20.5597 9.64789 20.4158L9.6428 19.755C9.63943 19.4033 9.63508 18.949 9.63198 18.4256C6.41282 19.1323 5.73282 16.8565 5.73282 16.8565C5.20763 15.5045 4.44805 15.1446 4.44805 15.1446C3.39622 14.419 4.52618 14.4336 4.52618 14.4336C5.68797 14.5166 6.29852 15.6399 6.29852 15.6399C7.33155 17.4276 9.0084 16.9119 9.66815 16.6117C9.77232 15.8556 10.0718 15.3398 10.4031 15.047C7.83359 14.7512 5.13095 13.7474 5.13095 9.26434C5.13095 7.9866 5.58235 6.94196 6.32312 6.12316C6.20303 5.8274 5.80661 4.63707 6.43597 3.02714C6.43597 3.02714 7.40823 2.71244 9.61896 4.22621C10.542 3.96687 11.5316 3.83721 12.5169 3.83284C13.4993 3.83866 14.4904 3.96687 15.4149 4.22767C17.6242 2.7139 18.595 3.0286 18.595 3.0286C19.2258 4.63998 18.8294 5.82886 18.7107 6.12462C19.4529 6.94342 19.9 7.98805 19.9 9.2658C19.9 13.7605 17.1945 14.7498 14.6162 15.0397Z" fill="white"/>
</svg>
