<svg width="18" height="18" viewBox="0 0 18 18" fill="none" xmlns="http://www.w3.org/2000/svg">
<path d="M16.1062 4.70435C15.5777 4.93962 15.0146 5.09557 14.4276 5.17129C15.0315 4.80531 15.4925 4.23021 15.7092 3.53702C15.1461 3.87776 14.5244 4.11843 13.8618 4.25275C13.3271 3.67494 12.5651 3.31708 11.7338 3.31708C10.1209 3.31708 8.8224 4.64576 8.8224 6.27462C8.8224 6.50898 8.84194 6.73434 8.8899 6.94887C6.4679 6.82899 4.32477 5.65084 2.88507 3.85612C2.63372 4.29872 2.48629 4.80531 2.48629 5.35067C2.48629 6.37467 3.00586 7.2824 3.78033 7.80792C3.31227 7.79891 2.85309 7.66099 2.46408 7.44375C2.46408 7.45276 2.46408 7.46448 2.46408 7.4762C2.46408 8.91305 3.47392 10.1065 4.79816 10.3815C4.56102 10.4473 4.30257 10.4788 4.03434 10.4788C3.84783 10.4788 3.65954 10.468 3.4828 10.4283C3.86027 11.5993 4.93138 12.4601 6.205 12.4881C5.21382 13.275 3.9553 13.7491 2.59286 13.7491C2.35395 13.7491 2.12481 13.7383 1.89566 13.7086C3.18615 14.5532 4.71556 15.0355 6.36487 15.0355C11.7258 15.0355 14.6567 10.5284 14.6567 6.62166C14.6567 6.49096 14.6523 6.36476 14.6461 6.23946C15.2242 5.82301 15.7101 5.30289 16.1062 4.70435Z" fill="#D9D6DC"/>
</svg>
