<svg width="18" height="18" viewBox="0 0 18 18" fill="none" xmlns="http://www.w3.org/2000/svg">
<path d="M6.63016 14.482C6.63016 14.8809 6.32168 15.0457 5.98003 14.8809L2.2924 13.0941C2.18109 13.0431 2.08753 12.9575 2.01115 12.8376C1.93477 12.7176 1.89569 12.5982 1.89569 12.4806V3.74053C1.89569 3.41451 2.0976 3.267 2.55411 3.48741L6.60648 5.45042C6.6651 5.50725 6.62187 5.11694 6.63016 14.482ZM7.1376 6.26261L11.3723 12.9024L7.1376 10.8631V6.26261ZM16.1062 6.40094V14.482C16.1062 14.61 16.0695 14.7133 15.9949 14.7926C15.9209 14.8718 15.8202 14.9114 15.6935 14.9114C15.5668 14.9114 15.4425 14.8781 15.3211 14.8115L11.8241 13.1246L16.1062 6.40094ZM16.0825 5.48085C16.0825 5.49634 15.4046 6.56854 14.0486 8.69687C12.6927 10.8252 11.8981 12.0719 11.6654 12.4346L8.57286 7.57358L11.142 3.53333C11.2817 3.31062 11.5683 3.27159 11.7608 3.36457L16.0511 5.43493C16.0719 5.44468 16.0825 5.46018 16.0825 5.48085Z" fill="white"/>
</svg>
