<svg width="18" height="18" viewBox="0 0 18 18" fill="none" xmlns="http://www.w3.org/2000/svg">
<path fill-rule="evenodd" clip-rule="evenodd" d="M5.60468 4.3548C5.30827 4.46044 4.98618 4.60061 4.64828 4.78345C4.3578 4.94191 4.05547 5.13491 3.74918 5.36853C3.74918 5.36853 3.5832 5.66717 3.35002 6.19536C3.17218 6.5976 2.95679 7.1319 2.74536 7.76776C2.30865 9.08623 1.89566 10.8455 1.89566 12.7775C1.89566 12.7775 2.01225 12.9847 2.27308 13.263C2.40745 13.4073 2.58134 13.5718 2.79871 13.7344C3.12871 13.9822 3.55751 14.228 4.09894 14.4088C4.56133 14.5632 5.10672 14.6689 5.743 14.6851C5.743 14.6851 6.15402 14.1224 6.56899 13.6267C4.98618 13.133 4.36966 12.1457 4.36966 12.1457L4.89924 12.4261C6.44647 13.0822 8.08461 13.907 11.0032 13.4134L11.0506 13.4012C11.272 13.3504 11.4933 13.2996 11.7146 13.2427C12.094 13.1432 12.4734 13.0233 12.8528 12.8486L13.2025 12.6698C13.5286 12.5093 13.8961 12.3285 14.2874 12.0705C14.2874 12.0705 14.1886 12.229 13.9653 12.4504C13.8349 12.5784 13.663 12.7288 13.4436 12.8811C13.1867 13.0599 12.8666 13.2427 12.4734 13.3992C12.3331 13.454 12.1829 13.5068 12.0228 13.5536C12.3627 14.0452 12.8389 14.6079 12.8389 14.6079C14.3526 14.5734 15.3683 14.0289 15.9967 13.5434C16.3267 13.2874 16.5499 13.0497 16.6784 12.9116C16.7614 12.8222 16.8068 12.7734 16.8167 12.7877C16.8167 8.70227 14.9513 5.37666 14.9513 5.37666C13.2836 4.10492 11.7264 4.04601 11.432 4.04601L11.2423 4.239C13.3725 4.87284 14.404 5.86219 14.404 5.86219C11.3134 4.27354 7.97592 4.18415 4.919 5.4376C4.43882 5.65091 4.16415 5.79109 4.16415 5.79109C4.16415 5.79109 4.55343 5.39088 5.38139 4.95207C5.67384 4.79767 6.02162 4.63718 6.42671 4.48685C6.73695 4.37105 7.08276 4.26338 7.46215 4.16993L7.32383 4.02772C7.32383 4.02772 7.05707 4.01757 6.62234 4.08867C6.34372 4.13539 5.99593 4.21666 5.60468 4.3548ZM11.6514 11.5098C12.3726 11.5098 12.9575 10.876 12.9575 10.0959C12.9575 9.31985 12.3746 8.68601 11.6514 8.69008C11.3312 8.69008 11.0368 8.81603 10.8096 9.02528C10.6396 9.18171 10.5072 9.38486 10.4282 9.61849C10.3768 9.76882 10.3472 9.93134 10.3472 10.102C10.3472 10.876 10.9321 11.5098 11.6514 11.5098ZM8.28616 10.0959C8.28616 10.876 7.70125 11.5098 6.98 11.5098C6.67174 11.5098 6.38917 11.394 6.16587 11.201C5.86749 10.943 5.67582 10.5449 5.67582 10.102C5.67582 9.31985 6.26072 8.69008 6.98 8.69008C7.70521 8.68601 8.28616 9.31985 8.28616 10.0959Z" fill="#D9D6DC"/>
</svg>
