<svg width="18" height="18" viewBox="0 0 18 18" fill="none" xmlns="http://www.w3.org/2000/svg">
<path d="M14.5231 7.13877C14.0742 7.13877 13.6793 7.32866 13.3886 7.62451C12.3198 6.86971 10.8787 6.38397 9.28175 6.33218L10.1113 2.51888L12.7527 3.12367C12.7527 3.78323 13.2796 4.32195 13.9262 4.32195C14.5852 4.32195 15.1152 3.76895 15.1152 3.10879C15.1152 2.44864 14.5888 1.89563 13.9268 1.89563C13.4656 1.89563 13.0677 2.17957 12.8693 2.56769L9.95201 1.90813C9.80517 1.86825 9.66129 1.9754 9.62221 2.1254L8.71155 6.3292C7.12708 6.39647 5.70129 6.88162 4.62899 7.63701C4.33827 7.32866 3.92794 7.13877 3.47913 7.13877C1.81413 7.13877 1.2688 9.41806 2.79347 10.1973C2.73959 10.4384 2.71531 10.6955 2.71531 10.9521C2.71531 13.5123 5.54261 15.5869 9.01412 15.5869C12.5004 15.5869 15.3277 13.5123 15.3277 10.9521C15.3277 10.6955 15.3011 10.4265 15.2354 10.1848C16.7292 9.40259 16.1792 7.13996 14.5231 7.13877ZM5.21281 10.3592C5.21281 9.68713 5.73978 9.14602 6.40175 9.14602C7.04833 9.14602 7.57589 9.68355 7.57589 10.3592C7.57589 11.0193 7.04892 11.5575 6.40175 11.5575C5.74274 11.5604 5.21281 11.0193 5.21281 10.3592ZM11.6306 13.2153C10.5406 14.3273 7.46458 14.3273 6.37392 13.2153C6.25373 13.1081 6.25373 12.9188 6.37392 12.7968C6.47873 12.6897 6.66465 12.6897 6.76945 12.7968C7.60195 13.6677 10.3635 13.6826 11.2321 12.7968C11.3369 12.6897 11.5229 12.6897 11.6277 12.7968C11.7502 12.9194 11.7502 13.1087 11.6306 13.2153ZM11.6063 11.5598C10.9598 11.5598 10.4328 11.0223 10.4328 10.3628C10.4328 9.6907 10.9598 9.1496 11.6063 9.1496C12.2654 9.1496 12.7953 9.68713 12.7953 10.3628C12.7923 11.0193 12.2654 11.5598 11.6063 11.5598Z" fill="#D9D6DC"/>
</svg>
