<svg width="57" height="57" viewBox="0 0 57 57" fill="none" xmlns="http://www.w3.org/2000/svg">
<mask id="path-1-inside-1" fill="white">
<path d="M56.125 28.1523C56.125 21.3574 53.6541 14.7944 49.1729 9.68655C44.6917 4.57874 38.506 1.27475 31.7689 0.390463C25.0318 -0.493821 18.203 1.10195 12.5554 4.88031C6.90785 8.65867 2.82696 14.3618 1.07343 20.9265C-0.680101 27.4913 0.0134019 34.4697 3.02466 40.5609C6.03592 46.6522 11.1594 51.4406 17.4402 54.0335C23.7209 56.6264 30.7302 56.847 37.1615 54.6541C43.5928 52.4611 49.0073 48.0043 52.3955 42.1145L51.7399 41.7373C48.4432 47.468 43.175 51.8044 36.9174 53.9381C30.6598 56.0718 23.8399 55.8572 17.7288 53.3343C11.6178 50.8114 6.63265 46.1524 3.70274 40.2257C0.772825 34.299 0.0980573 27.5091 1.80421 21.1217C3.51037 14.7343 7.48102 9.18528 12.976 5.50899C18.471 1.8327 25.1153 0.280043 31.6705 1.14044C38.2256 2.00083 44.2442 5.21557 48.6043 10.1854C52.9644 15.1552 55.3686 21.541 55.3686 28.1523H56.125Z"/>
</mask>
<path d="M56.125 28.1523C56.125 21.3574 53.6541 14.7944 49.1729 9.68655C44.6917 4.57874 38.506 1.27475 31.7689 0.390463C25.0318 -0.493821 18.203 1.10195 12.5554 4.88031C6.90785 8.65867 2.82696 14.3618 1.07343 20.9265C-0.680101 27.4913 0.0134019 34.4697 3.02466 40.5609C6.03592 46.6522 11.1594 51.4406 17.4402 54.0335C23.7209 56.6264 30.7302 56.847 37.1615 54.6541C43.5928 52.4611 49.0073 48.0043 52.3955 42.1145L51.7399 41.7373C48.4432 47.468 43.175 51.8044 36.9174 53.9381C30.6598 56.0718 23.8399 55.8572 17.7288 53.3343C11.6178 50.8114 6.63265 46.1524 3.70274 40.2257C0.772825 34.299 0.0980573 27.5091 1.80421 21.1217C3.51037 14.7343 7.48102 9.18528 12.976 5.50899C18.471 1.8327 25.1153 0.280043 31.6705 1.14044C38.2256 2.00083 44.2442 5.21557 48.6043 10.1854C52.9644 15.1552 55.3686 21.541 55.3686 28.1523H56.125Z" stroke="white" stroke-width="2" mask="url(#path-1-inside-1)"/>
</svg>
