<svg width="25" height="25" viewBox="0 0 25 25" fill="none" xmlns="http://www.w3.org/2000/svg">
<path d="M21.5 18.8477V19.8477C21.5 20.9477 20.6 21.8477 19.5 21.8477H5.5C4.39 21.8477 3.5 20.9477 3.5 19.8477V5.84766C3.5 4.74766 4.39 3.84766 5.5 3.84766H19.5C20.6 3.84766 21.5 4.74766 21.5 5.84766V6.84766H12.5C11.39 6.84766 10.5 7.74766 10.5 8.84766V16.8477C10.5 17.9477 11.39 18.8477 12.5 18.8477H21.5ZM12.5 16.8477H22.5V8.84766H12.5V16.8477ZM16.5 14.3477C15.67 14.3477 15 13.6777 15 12.8477C15 12.0177 15.67 11.3477 16.5 11.3477C17.33 11.3477 18 12.0177 18 12.8477C18 13.6777 17.33 14.3477 16.5 14.3477Z" fill="#D9D6DC"/>
</svg>
